<?xml version="1.0" encoding="UTF-8" standalone="no"?>
<svg viewBox="0 0 680.315 680.315" width="180mm" height="180mm" version="1.1" id="svg64" sodipodi:docname="design-original.svg" inkscape:version="1.1.2 (b8e25be833, 2022-02-05)" xmlns:inkscape="http://www.inkscape.org/namespaces/inkscape" xmlns:sodipodi="http://sodipodi.sourceforge.net/DTD/sodipodi-0.dtd" xmlns="http://www.w3.org/2000/svg" xmlns:svg="http://www.w3.org/2000/svg">
  <defs id="defs68" />
  <sodipodi:namedview id="namedview66" pagecolor="#ffffff" bordercolor="#cccccc" borderopacity="1" inkscape:pageshadow="0" inkscape:pageopacity="1" inkscape:pagecheckerboard="0" showgrid="false" units="mm" inkscape:current-layer="svg64" inkscape:document-units="mm" />
  <polyline points="47.05638640282068,0 47.52909177590336,49.718990395004965 107.62622466505844,51.4462618060907 108.0713969259975,0 " fill="none" stroke="#000000" id="polyline2" style="stroke-width:2.20919" transform="matrix(0.67394598,0,0,0.67394598,0.00272578,-0.00394721)" />
  <polyline points="106.95242397037372,129.31393233604132 48.30352826320791,131.1739567786868 48.75677917139889,178.8467331719705 106.50548488875876,180.96437649361798 106.95242397037372,129.31393233604132 " fill="none" stroke="#000000" id="polyline4" style="stroke-width:2.20919" transform="matrix(0.67394598,0,0,0.67394598,0.00272578,-0.00394721)" />
  <polyline points="1009,864.2941176470588 893.3192515036407,867.2749892634168 885.2043213217272,947.2116980673436 822.4930229882877,945.4714440006077 830.3594975734529,868.897341693729 804.0394232219186,869.5755596651262 806.6532239163932,836.5590591373465 771.0726516606542,837.7227448503687 770.874812503522,870.4301482465717 698.4385327644806,872.296692620422 698.289446983006,840.1031668071203 622.9501080044871,842.5671887955158 625.6685147692845,784.885164910644 597.2740991181797,785.8701049976496 600.4094368471918,699.8473442665007 629.6242779851829,700.9476058752654 632.8177268000454,633.1856383877557 602.8033287157223,634.1672787611776 605.0567222157706,572.3419997508471 544.9409293571256,574.5464440875863 545.759170980251,541.5222121782411 460.34696576822694,542.8766178109393 462.3447617290064,464.3680100428597 435.157535269405,465.0416281414623 432.8030429075072,543.3133896303361 342.3985633778754,544.7469591768913 343.7821906901182,467.3056356880254 280.10141036970236,468.8834548238137 278.29534392478155,545.7634621612813 228.2709098715545,546.5567138410154 228.52677057857736,470.1613200317206 192.85906149258898,471.04505910719115 193.60647672935477,387.762011541256 104.74499255009233,384.4153946940687 105.00551822101737,354.30778680910356 193.9280627856166,351.9282935452342 194.1984617809846,321.7982516551869 105.26318424438588,324.53065364094965 105.99387527820436,240.08846008223233 49.32034675060536,238.12257950892615 50.157971616004566,326.22367801308025 0,327.7647058823529 " fill="none" stroke="#000000" id="polyline6" style="stroke-width:2.20919" transform="matrix(0.67394598,0,0,0.67394598,0.00272578,-0.00394721)" />
  <polyline points="0,357.11764705882354 50.4388649657781,355.76794502306933 50.691877312270066,382.37969758897725 0,380.47058823529414 " fill="none" stroke="#000000" id="polyline8" style="stroke-width:2.20919" transform="matrix(0.67394598,0,0,0.67394598,0.00272578,-0.00394721)" />
  <polyline points="699.0715954345659,1009 698.7614988486894,942.0378635487656 618.3674478509198,939.8069087143379 621.4555453351002,874.2803969545785 594.0259796476199,874.9872043954848 595.174507045405,843.4756078556246 538.2315259644283,845.3379650168458 539.6554406065704,787.8687700599949 454.0371148506087,790.8386822517278 456.4904822559933,694.4272052432444 541.890953326075,697.6434767007896 543.4155787726983,636.1095936750723 457.90331312614234,638.9063278339785 459.4613047568139,577.6809793801646 431.73865165457136,578.6975682451625 429.89996212580905,639.8221956070321 340.647720694772,642.7412481018034 341.73300582250266,581.99807260174 277.3886903262426,584.3575767378763 275.96744486435705,644.8566585105285 227.93642607636536,646.4275441596899 228.13825995037345,586.1635885554256 191.8139879747836,587.4955985287623 192.17625321445746,547.1290770783925 103.32481472879458,548.5380196113663 103.97631661376093,473.24730749368337 51.56815060927056,474.54582498636154 52.27933029391865,549.3474623774298 0,550.1764705882352 " fill="none" stroke="#000000" id="polyline10" style="stroke-width:2.20919" transform="matrix(0.67394598,0,0,0.67394598,0.00272578,-0.00394721)" />
  <polyline points="589.1415122036788,1009 591.6904280865486,939.0666148061096 535.9475375906279,937.5197357834278 537.4607921670306,876.4447810798212 451.802542654405,878.6520303239522 452.5789955535864,848.1392866259218 423.60507194959257,849.0868976060327 422.6931598331941,879.402123439266 336.37961408369557,881.6262584139803 336.9103281612603,851.9223054801804 271.05245511968565,854.0762299701427 270.3652879821493,883.3273213264088 227.13927938609524,884.4411728858711 227.2361770760373,855.5092697872293 189.3976204230816,856.7468043457502 189.90688183137362,800.0007815140403 101.12222003042463,803.0805269679879 102.17787938939854,681.0834203979217 190.94409191751052,684.4264492146395 191.27434840924266,647.6266012092588 102.44224619166262,650.5319127783174 102.95951444155281,590.7538894313684 52.69052946741801,592.597251615752 53.25663995280044,652.1405599595685 0,653.8823529411765 " fill="none" stroke="#000000" id="polyline12" style="stroke-width:2.20919" transform="matrix(0.67394598,0,0,0.67394598,0.00272578,-0.00394721)" />
  <polyline points="0,677.2352941176471 53.51439076077596,679.2507022929786 54.70701551847627,804.6905687498692 0,806.5882352941177 " fill="none" stroke="#000000" id="polyline14" style="stroke-width:2.20919" transform="matrix(0.67394598,0,0,0.67394598,0.00272578,-0.00394721)" />
  <polyline points="226.72211143941354,1009 226.99022510459662,928.9460938115658 188.75919636893377,927.8851732916463 189.14029274779466,885.4203340876509 100.38993213902407,887.707261120186 100.63271655849232,859.6499181490519 55.243657565690675,861.1343967880632 55.50729602989877,888.8638008018879 0,890.2941176470588 " fill="none" stroke="#000000" id="polyline16" style="stroke-width:2.20919" transform="matrix(0.67394598,0,0,0.67394598,0.00272578,-0.00394721)" />
  <polyline points="99.34036777988484,1009 100.063564829484,925.4238475403039 55.84322525211862,924.1967221605555 56.649495950120496,1009 " fill="none" stroke="#000000" id="polyline18" style="stroke-width:2.20919" transform="matrix(0.67394598,0,0,0.67394598,0.00272578,-0.00394721)" />
  <polyline points="230.10141797235116,0 229.9173443288763,54.96107099365335 196.601758202707,54.00353680370399 195.95122348503438,126.49137377858922 229.68136033371113,125.42163703016736 229.48023559726104,185.4738569457633 195.4330957954749,184.22534934153524 194.90408004787878,243.17256034678994 229.2829991971063,244.36508975236273 229.02724664692022,320.72818988031673 283.6212799935382,319.05087071902324 285.3301275801989,246.30924187665238 347.69203588512755,248.4724398852475 346.4655234701267,317.12007632083265 439.6933230193177,314.2557930839398 441.5741908993731,251.7290062137892 467.73266242824195,252.63638629655475 466.1853551447063,313.4418654368763 551.4752450561176,310.82146247626804 550.6932804660896,342.38155332980034 465.39084602494546,344.66417546053464 464.03497586864694,397.9466329161748 549.2370396628816,401.1554321472758 547.7232350327968,462.2525870174932 609.1246853231679,460.7312428576723 606.2149759168171,540.5635472833105 637.2059298321686,540.0721149120067 635.7381549029757,571.2169125264402 697.0338461097585,568.969201352356 697.3214580029384,631.0760019856789 772.3374480356184,628.6225553344616 772.715063399586,566.1939733645229 828.2182081711277,564.1586746959927 823.2466422111974,626.9575370908598 855.3217955675898,625.90849837851 846.7728790144422,709.1256503144249 816.8309521697811,707.9980058941105 811.2537028999043,778.4476212192943 839.7529742698982,777.4590439170648 833.7727342637802,835.6720979465995 896.7365313493576,833.6128260894893 902.6586074810385,775.2769852823869 1009,771.5882352941177 " fill="none" stroke="#000000" id="polyline20" style="stroke-width:2.20919" transform="matrix(0.67394598,0,0,0.67394598,0.00272578,-0.00394721)" />
  <polyline points="282.9048562138684,349.54734862693607 228.92588891581286,350.99178085394055 228.79830052924143,389.0873725961576 281.92897477952476,391.0883296045924 282.9048562138684,349.54734862693607 " fill="none" stroke="#000000" id="polyline22" style="stroke-width:2.20919" transform="matrix(0.67394598,0,0,0.67394598,0.00272578,-0.00394721)" />
  <polyline points="274.96353580334534,687.5907097375947 227.80451219262414,685.8146513657341 227.42644295101064,798.6993101174226 272.39001087609796,797.1396224292381 274.96353580334534,687.5907097375947 " fill="none" stroke="#000000" id="polyline24" style="stroke-width:2.20919" transform="matrix(0.67394598,0,0,0.67394598,0.00272578,-0.00394721)" />
  <polyline points="291.116428495528,0 289.78486002357283,56.68174290162779 351.08723893011097,58.44365468387715 352.13143901870484,0 " fill="none" stroke="#000000" id="polyline26" style="stroke-width:2.20919" transform="matrix(0.67394598,0,0,0.67394598,0.00272578,-0.00394721)" />
  <polyline points="349.95871149765156,121.6070926919651 288.21363009218936,123.56531132920473 286.70997283476385,187.57246970868457 348.73948228286486,189.84708997585975 349.95871149765156,121.6070926919651 " fill="none" stroke="#000000" id="polyline28" style="stroke-width:2.20919" transform="matrix(0.67394598,0,0,0.67394598,0.00272578,-0.00394721)" />
  <polyline points="334.10385509894223,1009 335.48037061475077,931.9567222300835 269.26605099626596,930.1192584547439 267.41298326917786,1009 " fill="none" stroke="#000000" id="polyline30" style="stroke-width:2.20919" transform="matrix(0.67394598,0,0,0.67394598,0.00272578,-0.00394721)" />
  <polyline points="438.7571700878844,345.37687045587717 345.9162782123359,347.86121543173425 345.1014411454512,393.4674710534578 437.20621321362216,396.9362335297615 438.7571700878844,345.37687045587717 " fill="none" stroke="#000000" id="polyline32" style="stroke-width:2.20919" transform="matrix(0.67394598,0,0,0.67394598,0.00272578,-0.00394721)" />
  <polyline points="428.2893377405949,693.3651205142204 339.8027759562535,690.0326236382988 337.92973733691014,794.8661928691506 425.32727904724254,791.8345635729546 428.2893377405949,693.3651205142204 " fill="none" stroke="#000000" id="polyline34" style="stroke-width:2.20919" transform="matrix(0.67394598,0,0,0.67394598,0.00272578,-0.00394721)" />
  <polyline points="449.1464495418817,0 447.3052193765424,61.20908722396289 472.58539291987546,61.93567298487137 474.16146006505846,0 " fill="none" stroke="#000000" id="polyline36" style="stroke-width:2.20919" transform="matrix(0.67394598,0,0,0.67394598,0.00272578,-0.00394721)" />
  <polyline points="471.1647614564364,117.76309507186488 445.57961024318547,118.57451711232477 443.3313190936093,193.3157698192666 469.218028858328,194.2650346966646 471.1647614564364,117.76309507186488 " fill="none" stroke="#000000" id="polyline38" style="stroke-width:2.20919" transform="matrix(0.67394598,0,0,0.67394598,0.00272578,-0.00394721)" />
  <polyline points="448.4855987584709,1009 450.3649802328115,935.1447986119523 421.0408432449459,934.3310465448956 418.7947269287066,1009 " fill="none" stroke="#000000" id="polyline40" style="stroke-width:2.20919" transform="matrix(0.67394598,0,0,0.67394598,0.00272578,-0.00394721)" />
  <polyline points="625.917311325733,0 623.5018006283291,66.27321096658113 557.5813623121229,64.37857002389532 556.325572256425,115.06225667186526 621.7992314092445,112.98578779883233 618.6370798464804,199.74422685381194 554.285874204285,197.38447005622896 552.8437475104276,255.5887034203174 616.5211663206863,257.79753360699635 614.6593160876046,308.8802273900677 648.1499059104507,307.85127963535194 646.6435842215924,339.81400308064417 613.4995231716034,340.70091056166467 611.2110214367705,403.48943740734296 643.5852632501874,404.7086853646372 640.9822622725328,459.941907452584 696.5225762431609,458.56578470801935 696.8956426420776,539.1255981578355 772.8860822068891,537.9205961429328 773.3775985018397,456.66154728832964 836.852886539343,455.08881963626067 830.3675451966621,537.0090962342742 864.510069886461,536.4676885087671 861.7918444302296,562.9275304525963 924.448923336449,560.6298972320511 927.0023959481292,535.4767299190876 1009,534.1764705882352 " fill="none" stroke="#000000" id="polyline42" style="stroke-width:2.20919" transform="matrix(0.67394598,0,0,0.67394598,0.00272578,-0.00394721)" />
  <polyline points="694.3989928007283,0 694.7153774746312,68.31998374016167 659.486123584033,67.3074481972208 657.3866097135547,111.85714943833885 694.9114835993907,110.66706424077019 695.3370180633826,202.55681130775187 653.1850113325542,201.01109847421307 650.4533408265439,258.9745664193898 695.6055375136531,260.5407972261775 695.8178466705509,306.3867542007007 774.3011595644798,303.9754730315116 774.5473219732964,263.27911482388566 851.8255742201987,265.95972813274744 848.9976830463552,301.6805352436641 888.7552906216469,300.45904284045895 885.3685959362717,333.425920507506 846.4019640300288,334.4686351373064 840.2549359538681,412.11547184901764 877.1420870647546,413.5046807114693 872.9620495768102,454.1941426531718 935.4110326453605,452.6468437664387 939.1475638298608,415.8398721059925 1009,418.47058823529414 " fill="none" stroke="#000000" id="polyline44" style="stroke-width:2.20919" transform="matrix(0.67394598,0,0,0.67394598,0.00272578,-0.00394721)" />
  <polyline points="774.1050118519275,336.4032413898424 695.9665336460936,338.49416201576656 696.2823587542327,406.69331334199467 773.6622169097152,409.60752009116055 774.1050118519275,336.4032413898424 " fill="none" stroke="#000000" id="polyline46" style="stroke-width:2.20919" transform="matrix(0.67394598,0,0,0.67394598,0.00272578,-0.00394721)" />
  <polyline points="771.8675679447066,706.3046376081317 697.6568933729005,703.5097856420973 698.0221139576756,782.3753770299763 771.422835280153,779.8292667759756 771.8675679447066,706.3046376081317 " fill="none" stroke="#000000" id="polyline48" style="stroke-width:2.20919" transform="matrix(0.67394598,0,0,0.67394598,0.00272578,-0.00394721)" />
  <polyline points="776.139833538226,0 775.7125012170494,70.64794864455227 867.0798309737527,73.27396704192037 872.8806742757237,0 " fill="none" stroke="#000000" id="polyline50" style="stroke-width:2.20919" transform="matrix(0.67394598,0,0,0.67394598,0.00272578,-0.00394721)" />
  <polyline points="864.5454557794288,105.28719594566493 775.4858921749578,108.11168161002874 774.8969694574673,205.474272359864 856.3774553342233,208.46215935435356 864.5454557794288,105.28719594566493 " fill="none" stroke="#000000" id="polyline52" style="stroke-width:2.20919" transform="matrix(0.67394598,0,0,0.67394598,0.00272578,-0.00394721)" />
  <polyline points="793.0016786654529,1009 798.0846344545402,944.7941051711282 770.4296449638608,944.0266723606833 770.0366370500094,1009 " fill="none" stroke="#000000" id="polyline54" style="stroke-width:2.20919" transform="matrix(0.67394598,0,0,0.67394598,0.00272578,-0.00394721)" />
  <polyline points="973.6129716106051,76.33587098490223 911.961546170494,74.56392714172759 908.9500099468008,103.8789246539346 971.0167128942069,101.91050592814968 973.6129716106051,76.33587098490223 " fill="none" stroke="#000000" id="polyline56" style="stroke-width:2.20919" transform="matrix(0.67394598,0,0,0.67394598,0.00272578,-0.00394721)" />
  <polyline points="959.8148564676935,212.25520577847487 898.0491688481766,209.99025984990982 892.1556970605592,267.35869175951916 954.0031295413239,269.50404372862397 959.8148564676935,212.25520577847487 " fill="none" stroke="#000000" id="polyline58" style="stroke-width:2.20919" transform="matrix(0.67394598,0,0,0.67394598,0.00272578,-0.00394721)" />
  <polyline points="1009,296.7647058823529 951.0549826214225,298.54497896335977 947.6832544438971,331.75843212325833 1009,330.11764705882354 " fill="none" stroke="#000000" id="polyline60" style="stroke-width:2.20919" transform="matrix(0.67394598,0,0,0.67394598,0.00272578,-0.00394721)" />
  <polyline points="1009,620.8823529411765 918.0302425832276,623.8575779111997 909.1356611252228,711.4742982036316 1009,715.2352941176471 " fill="none" stroke="#000000" id="polyline62" style="stroke-width:2.20919" transform="matrix(0.67394598,0,0,0.67394598,0.00272578,-0.00394721)" />
</svg>
