<?xml version="1.0" encoding="UTF-8" standalone="no"?>
<svg
   xmlns:dc="http://purl.org/dc/elements/1.1/"
   xmlns:cc="http://creativecommons.org/ns#"
   xmlns:rdf="http://www.w3.org/1999/02/22-rdf-syntax-ns#"
   xmlns:svg="http://www.w3.org/2000/svg"
   xmlns="http://www.w3.org/2000/svg"
   xmlns:sodipodi="http://sodipodi.sourceforge.net/DTD/sodipodi-0.dtd"
   xmlns:inkscape="http://www.inkscape.org/namespaces/inkscape"
   inkscape:version="0.92.4 (5da689c313, 2019-01-14)"
   sodipodi:docname="design.svg"
   id="svg64"
   version="1.1"
   height="180mm"
   width="180mm"
   viewBox="0 0 680.315 680.315"
   inkscape:export-filename="C:\Users\FabLab05\Desktop\Elizabeth.png"
   inkscape:export-xdpi="300.00223"
   inkscape:export-ydpi="300.00223">
  <metadata
     id="metadata4626">
    <rdf:RDF>
      <cc:Work
         rdf:about="">
        <dc:format>image/svg+xml</dc:format>
        <dc:type
           rdf:resource="http://purl.org/dc/dcmitype/StillImage" />
      </cc:Work>
    </rdf:RDF>
  </metadata>
  <defs
     id="defs68" />
  <sodipodi:namedview
     id="namedview66"
     pagecolor="#ffffff"
     bordercolor="#cccccc"
     borderopacity="1"
     inkscape:pageshadow="0"
     inkscape:pageopacity="1"
     inkscape:pagecheckerboard="0"
     showgrid="false"
     units="mm"
     inkscape:current-layer="svg64"
     inkscape:document-units="mm"
     inkscape:snap-global="false"
     inkscape:zoom="2.0736"
     inkscape:cx="504.69026"
     inkscape:cy="522.06867"
     inkscape:window-width="1280"
     inkscape:window-height="961"
     inkscape:window-x="-8"
     inkscape:window-y="-8"
     inkscape:window-maximized="1" />
  <path
     transform="matrix(0.67394598,0,0,0.67394598,0.00272578,-0.00394721)"
     style="fill:#000000;stroke:none;stroke-width:2.20918989"
     d="m 771.86757,706.30464 -74.21068,-2.79485 0.11053,23.86821 -10.34994,-0.5498 0.65201,31.99929 9.84284,-0.1636 0.10981,23.71149 24.82746,-0.86678 0.0688,11.78965 23.08398,-0.91718 0.16426,-11.74206 25.25627,-0.80974 0.44473,-73.52463"
     id="polyline48"
     inkscape:connector-curvature="0"
     sodipodi:nodetypes="ccccccccccccc" />
  <path
     id="polyline44"
     style="fill:#000000;stroke:#000000;stroke-width:2.20918989"
     transform="matrix(0.67394598,0,0,0.67394598,0.00272578,-0.00394721)"
     d="m 694.39899,0 0.31639,68.319984 -35.22926,-1.012536 -0.58997,12.014577 -12.34693,-0.287409 -0.59441,20.980874 12.0048,-0.317175 -0.57301,12.158835 37.52487,-1.19009 0.42554,91.88975 -42.15201,-1.54571 c -0.26763,5.67873 -0.89918,14.14699 -0.89918,14.14699 l -17.23852,-0.59001 -1.00612,28.61763 17.11871,1.18148 -0.70656,14.60738 45.1522,1.56623 0.21231,45.84595 78.48331,-2.41128 0.24616,-40.69636 77.27825,2.68062 -2.82789,35.72081 39.75761,-1.2215 -3.38669,32.96688 -38.96664,1.04272 -6.14702,77.64683 36.88715,1.38921 -4.18004,40.68946 17.39587,-0.48598 -1.08441,12.08756 23.93449,-0.44882 1.3872,-12.23671 20.81583,-0.46335 3.73653,-36.80697 69.85245,2.63072 0.5258,-418.52647996 z"
     sodipodi:nodetypes="ccccccccccccccccccccccccccccccccccccc"
     inkscape:connector-curvature="0"
     inkscape:export-filename="C:\Users\FabLab05\Desktop\polyline44.png"
     inkscape:export-xdpi="300.00223"
     inkscape:export-ydpi="300.00223" />
  <path
     id="path34768"
     style="fill:black;stroke:none;stroke-width:1.26022;stroke-linecap:round;stroke-linejoin:bevel"
     d="M 61.030455,369.68004 C 74.06971,364.35888 81.651404,350.13892 79.011481,335.95545 76.371557,321.77197 64.272147,311.71961 50.316052,312.1149 c -13.956095,0.39529 -25.739872,11.12412 -27.946849,25.44488 -2.206979,14.32076 5.799973,28.09919 18.989591,32.67745 l -6.122624,-0.0107 -35.23344422,0.5587 v 69.89216 l 35.89209822,-1.17387 -0.381528,-40.12897 33.878578,-1.24233 -0.348606,40.28716 59.868042,-1.95802 -0.22258,24.80111 -59.823633,-2.25302 -0.711458,82.21946 59.836061,-2.07559 -0.34321,38.24375 25.50115,-0.83402 -0.0653,19.49853 29.132,-0.75067 0.46311,-19.71366 44.38465,-1.45162 -0.35768,20.01886 58.17067,-1.49895 0.61458,-20.43082 19.52686,-0.63864 -0.52329,20.56394 57.72903,-1.48757 -1.01984,41.16122 37.56769,1.04251 -3.71783,47.13133 h 74.08693 l 1.79101,-45.12887 -54.18125,-1.50354 2.08122,-44.16133 -18.48605,0.47635 0.77404,-21.23711 -38.37649,1.25513 0.95964,-38.73114 -57.70213,2.00156 1.65344,-64.97612 57.5553,2.16759 1.02752,-41.47052 -57.63065,1.88486 0.90873,-31.80388 c 0.0322,-2.50645 0.22439,-9.35362 -4.85253,-9.04767 l -7.98763,0.1264 c -4.7175,0.3278 -5.74949,6.33423 -5.73888,9.31771 l -1.20243,32.02468 -60.15119,1.96728 0.49272,-27.57737 c -0.31097,-10.4555 -4.76667,-12.80832 -9.59876,-13.00745 l -21.90094,0.78544 c 0,0 -10.6684,0.50459 -11.21223,12.06467 l -1.37181,29.16037 -32.3703,1.05868 0.13602,-40.61464 -24.4806,0.8977 0.24415,-27.20485 -66.746483,0.94955"
     sodipodi:nodetypes="csssccccccccccccccccccccccccccccccccccccccccccccccccccscccccc" />
  <path
     transform="matrix(0.67394598,0,0,0.67394598,0.00272578,-0.00394721)"
     style="fill:#000000;stroke:none;stroke-width:2.20918989"
     d="M 47.056386,0 47.529092,31.913407 107.62622,33.640679 108.0714,0"
     id="polyline2"
     inkscape:connector-curvature="0"
     sodipodi:nodetypes="cccc" />
  <path
     style="fill:none;stroke:black;stroke-width:11.2161;stroke-linecap:round;stroke-linejoin:round;stroke-miterlimit:4;stroke-dasharray:none"
     d="m 1009,864.294 c -3.5934,15.30313 -100.16804,15.23745 -115.681,2.981 -27.79503,-21.96024 -10.91008,50.37884 -8.115,79.937 2.03279,5.65713 -61.82166,-0.32036 -62.711,-1.741 -6.53652,-10.57714 -1.51488,-34.36388 9.2825,-43.16525 9.57653,-9.44815 17.08352,-38.48691 7.56824,-35.9242 -7.12453,1.91883 -40.57753,15.88674 -35.84279,1.58029 3.58045,-10.81865 6.45533,-16.87192 3.15205,-31.40284 -11.42085,16.50817 -35.22065,-13.57969 -35.58,1.164 -2.8748,8.91423 1.77162,20.26391 1.95421,31.63089 7.60922,16.35131 -69.26175,7.65157 -74.96867,-2.00289 0,-20.618 0.23046,-24.964 0.23046,-27.248 -0.76092,-32.35761 -57.02279,27.24872 -69.95847,5.15426 0.0923,-11.25047 4.5902,-59.52919 -3.4806,-62.21946 -8.0708,0.53805 -20.22355,6.39491 -27.57593,1.42709 0,0 3.135,-78.59394 3.135,-85.15594 0,-5.42059 21.1442,-4.73522 29.215,1.63905 4.30443,-33.67895 3.194,-60.703 3.194,-67.762 0,-8.859 -30.015,-0.679 -30.015,0.981 0,2.693 2.254,-61.825 2.254,-61.825 -5.35349,11.6194 -54.73547,12.34795 -60.116,2.204 -4.30443,4.34041 0.818,-19.01312 0.818,-33.024 -0.53806,-35.96811 -69.2704,17.9453 -80.56952,-11.55828 -4.84248,-18.05525 0.38384,-52.46618 0.38384,-57.89418 3.22832,-9.64411 -32.66523,-14.22348 -30.41532,-3.22293 7.74402,46.96802 8.24847,68.98139 -1.27889,72.31418 -19.01692,9.73844 -49.78893,13.1015 -91.48011,3.58621 0,-5.324 9.58914,-46.65455 1.383,-77.441 -6.46352,-16.16496 -65.09933,-8.08241 -63.681,1.577 2.28277,13.37892 7.07901,75.0698 -1.806,76.88 -8.62401,7.53376 -44.01271,9.16017 -47.0564,0.794 -11.83717,-13.87069 0.256,-70.127 0.256,-76.396 -1.88319,3.51208 -34.45053,12.497 -38.6356,0.884 -1.06789,-4.69207 -4.57058,-16.76456 1.04365,-33.49349 4.18764,-12.47809 9.20837,-52.29137 -0.29665,-49.78951 -15.17874,10.47241 -52.44403,17.75259 -77.82119,5.2053 C 87.888436,378.79704 -6.0195257,377.25228 0,380.471"
     transform="matrix(0.67394598,0,0,0.67394598,0.00272578,-0.00394721)"
     id="polyline6"
     sodipodi:nodetypes="csccccsccccccccccccccccccccccccccsccc" />
  <path
     id="polyline8"
     style="fill:#000000;stroke:none;stroke-width:2.20918989"
     transform="matrix(0.67394598,0,0,0.67394598,0.00272578,-0.00394721)"
     d="m 0,357.11765 50.438865,-1.3497 0.253012,11.01394 c 0,0 38.524327,1.34552 54.053113,7.90212 l 0.26053,-20.37622 88.92254,-2.3795 0.2704,-30.13004 -88.93528,2.7324 0.34547,-72.50017 -56.191996,-2.15849 0.741318,76.35169 L 0,327.76471"
     sodipodi:nodetypes="cccccccccccc"
     inkscape:connector-curvature="0" />
  <polyline
     points="0,677.2352941176471 53.51439076077596,679.2507022929786 54.70701551847627,804.6905687498692 0,806.5882352941177 "
     fill="none"
     stroke="#000000"
     id="polyline14"
     style="stroke-width:2.20919;fill:black;stroke:none"
     transform="matrix(0.67394598,0,0,0.67394598,0.00272578,-0.00394721)" />
  <path
     id="polyline16"
     style="fill:black;stroke:none;stroke-width:2.20919"
     transform="matrix(0.67394598,0,0,0.67394598,0.00272578,-0.00394721)"
     d="m 226.72211,1009 0.26812,-80.05391 -38.23103,-1.06092 0.38109,-42.46484 -88.75036,2.28693 0.24279,-28.05734 -45.389062,1.48448 0.263638,27.7294 L 0,890.29412 0.4980843,1009.7397 Z"
     sodipodi:nodetypes="ccccccccccc" />
  <path
     style="fill:none;stroke:#000000;stroke-width:11.216115;stroke-linejoin:miter;stroke-miterlimit:1.5;stroke-dasharray:none"
     d="m 549.23704,413.08197 -1.5138,49.17105 61.40145,-1.52135 -2.21954,85.35366 c 4.83118,4.83118 24.08926,2.68333 30.30078,-6.01279 l -1.46778,31.1448 61.2957,-2.24771 0.28761,62.1068 59.11451,-2.45344"
     transform="matrix(0.67394598,0,0,0.67394598,0.00272578,-0.00394721)"
     id="path51054"
     inkscape:connector-curvature="0"
     sodipodi:nodetypes="ccccccccc" />
  <path
     style="fill:#000000;stroke:none;stroke-width:2.20918989"
     d="m 230.10142,0 -0.18408,54.961071 -33.31558,-0.957534 -0.15456,20.18935 -19.49083,-0.290106 0.7777,31.925149 18.37123,0.52813 -0.15408,20.13574 33.73014,-1.06973 -0.20112,60.05222 -34.04714,-1.24851 -0.13503,15.04556 -14.07716,-0.3366 -0.2221,28.6444 14.03167,1.50953 -0.1264,14.08432 34.37892,1.19253 -0.25575,76.3631 54.59403,-1.67732 1.70885,-72.74163 62.36191,2.1632 -1.22652,68.64764 93.2278,-2.86429 1.88087,-62.52678 26.15847,0.90738 -1.5473,60.80548 85.28989,-2.62041 -0.78197,31.56009 -85.30243,2.28263 -1.35587,53.28245 85.20206,3.2088 c 0,0 14.15633,0.44368 21.05801,0.0986 25.67426,-5.79741 41.54675,-53.00338 41.75763,-60.63357 0.34508,-6.90168 1.44684,-31.32137 1.44684,-31.32137 l 17.0639,-0.59934 0.60911,-30.52487 -16.51321,0.45381 0.71157,-20.83159 -62.52714,-2.20883 1.44212,-58.20423 64.35121,2.35976 1.06312,-25.08727 15.68145,-0.63776 1.29579,-33.94743 -15.48204,-0.4181 0.60383,-26.66788 -65.47366,2.07647 1.25579,-50.68369 65.92044,1.894641 L 625.91731,0"
     transform="matrix(0.67394598,0,0,0.67394598,0.00272578,-0.00394721)"
     id="polyline20"
     sodipodi:nodetypes="cccccccccccccccccccccccccccccccccccccccccccccccccc"
     inkscape:connector-curvature="0" />
  <polyline
     points="282.9048562138684,349.54734862693607 228.92588891581286,350.99178085394055 228.79830052924143,389.0873725961576 281.92897477952476,391.0883296045924 282.9048562138684,349.54734862693607 "
     fill="none"
     stroke="#000000"
     id="polyline22"
     style="stroke-width:2.20919;fill:black;stroke:none"
     transform="matrix(0.67394598,0,0,0.67394598,0.00272578,-0.00394721)" />
  <polyline
     points="274.96353580334534,687.5907097375947 227.80451219262414,685.8146513657341 227.42644295101064,798.6993101174226 272.39001087609796,797.1396224292381 274.96353580334534,687.5907097375947 "
     fill="none"
     stroke="#000000"
     id="polyline24"
     style="fill:white;stroke:none;stroke-width:2.5663"
     transform="matrix(0.67090254,0,0,0.50169542,8.3117822,127.85024)" />
  <polyline
     points="334.10385509894223,1009 335.48037061475077,931.9567222300835 269.26605099626596,930.1192584547439 267.41298326917786,1009 "
     fill="none"
     stroke="#000000"
     id="polyline30"
     style="stroke-width:2.20919;fill:black;stroke:none"
     transform="matrix(0.67394598,0,0,0.67394598,0.00272578,-0.00394721)" />
  <polyline
     points="438.7571700878844,345.37687045587717 345.9162782123359,347.86121543173425 345.1014411454512,393.4674710534578 437.20621321362216,396.9362335297615 438.7571700878844,345.37687045587717 "
     fill="none"
     stroke="#000000"
     id="polyline32"
     style="stroke-width:2.20919;fill:black;stroke:none"
     transform="matrix(0.67394598,0,0,0.67394598,0.00272578,-0.00394721)" />
  <polyline
     points="428.2893377405949,693.3651205142204 339.8027759562535,690.0326236382988 337.92973733691014,794.8661928691506 425.32727904724254,791.8345635729546 428.2893377405949,693.3651205142204 "
     fill="none"
     stroke="#000000"
     id="polyline34"
     style="fill:white;stroke:none;stroke-width:2.7203"
     transform="matrix(0.59709255,0,0,0.50169542,32.91823,127.85024)" />
  <polyline
     points="448.4855987584709,1009 450.3649802328115,935.1447986119523 421.0408432449459,934.3310465448956 418.7947269287066,1009 "
     fill="none"
     stroke="#000000"
     id="polyline40"
     style="stroke-width:2.20919;fill:black;stroke:none"
     transform="matrix(0.67394598,0,0,0.67394598,0.00272578,-0.00394721)" />
  <path
     style="fill:none;stroke:#000000;stroke-width:11.21611523;stroke-miterlimit:4;stroke-dasharray:none"
     d="m 611.21102,403.48944 32.37424,1.21925 -2.603,55.23322 55.54032,-1.37613 0.37306,80.55982 60.08896,-1.205"
     transform="matrix(0.67394598,0,0,0.67394598,0.00272578,-0.00394721)"
     id="path4669"
     inkscape:connector-curvature="0"
     sodipodi:nodetypes="cccccc" />
  <path
     style="color:#000000;font-style:normal;font-variant:normal;font-weight:normal;font-stretch:normal;font-size:medium;line-height:normal;font-family:sans-serif;font-variant-ligatures:normal;font-variant-position:normal;font-variant-caps:normal;font-variant-numeric:normal;font-variant-alternates:normal;font-feature-settings:normal;text-indent:0;text-align:start;text-decoration:none;text-decoration-line:none;text-decoration-style:solid;text-decoration-color:#000000;letter-spacing:normal;word-spacing:normal;text-transform:none;writing-mode:lr-tb;direction:ltr;text-orientation:mixed;dominant-baseline:auto;baseline-shift:baseline;text-anchor:start;white-space:normal;shape-padding:0;clip-rule:nonzero;display:inline;overflow:visible;visibility:visible;opacity:1;isolation:auto;mix-blend-mode:normal;color-interpolation:sRGB;color-interpolation-filters:linearRGB;solid-color:#000000;solid-opacity:1;vector-effect:none;fill:#000000;fill-opacity:1;fill-rule:nonzero;stroke:none;stroke-width:7.55905581;stroke-linecap:butt;stroke-linejoin:miter;stroke-miterlimit:4;stroke-dasharray:none;stroke-dashoffset:0;stroke-opacity:1;color-rendering:auto;image-rendering:auto;shape-rendering:auto;text-rendering:auto;enable-background:accumulate"
     d="m 568.11286,302.81893 -50.66441,1.25444 -0.15532,123.05022 7.46605,-0.16583 0.22772,-115.50912 34.89381,-0.86481 -9.37996,115.60624 7.7593,-0.23049 z"
     id="path4665"
     inkscape:connector-curvature="0"
     sodipodi:nodetypes="ccccccccc" />
  <path
     style="fill:#000000;stroke:none;stroke-width:11.216115;stroke-miterlimit:4;stroke-dasharray:none"
     d="m 1009,534.17647 -81.9976,1.30026 -2.55348,25.15317 -62.65708,2.29763 2.71823,-26.45984 -17.31685,0.54141 c -1.63685,30.02882 -4.62154,64.37356 -7.12091,94.3423 l 14.25098,-0.44993 -7.55041,78.22461 -13.11626,-1.12764 -5.57725,70.44961 11.6736,-0.98858 -5.98024,58.21306 62.9638,-2.05927 5.92208,-58.33584 L 1009,771.58824"
     transform="matrix(0.67394598,0,0,0.67394598,0.00272578,-0.00394721)"
     id="path51211"
     inkscape:connector-curvature="0"
     sodipodi:nodetypes="cccccccccccccccc" />
  <path
     transform="matrix(0.67394598,0,0,0.67394598,0.00272578,-0.00394721)"
     style="fill:#000000;stroke:none;stroke-width:2.20918989"
     d="m 774.10501,336.40324 -78.13848,2.09092 -0.71066,23.24584 -11.21415,0.33277 0.21476,20.10602 11.91544,0.6747 0.1104,23.83982 24.07944,0.82191 0.0256,10.45969 25.84449,0.003 0.70257,-9.3926 26.72781,1.02171 0.44279,-73.20428"
     id="polyline46"
     inkscape:connector-curvature="0"
     sodipodi:nodetypes="ccccccccccccc" />
  <polyline
     points="776.139833538226,0 775.7125012170494,70.64794864455227 867.0798309737527,73.27396704192037 872.8806742757237,0 "
     fill="none"
     stroke="#000000"
     id="polyline50"
     style="fill:white;fill-opacity:1;stroke:none;stroke-width:0;stroke-miterlimit:4;stroke-dasharray:none"
     transform="matrix(0.67394598,0,0,0.68334627,0.00272578,-0.69274355)" />
  <polyline
     points="864.5454557794288,105.28719594566493 775.4858921749578,108.11168161002874 774.8969694574673,205.474272359864 856.3774553342233,208.46215935435356 864.5454557794288,105.28719594566493 "
     fill="none"
     stroke="#000000"
     id="polyline52"
     style="stroke-width:0;fill:#ffffff;fill-opacity:1;stroke:none;stroke-miterlimit:4;stroke-dasharray:none"
     transform="matrix(0.67394598,0,0,0.67394598,0.00272578,-0.00394721)" />
  <polyline
     points="793.0016786654529,1009 798.0846344545402,944.7941051711282 770.4296449638608,944.0266723606833 770.0366370500094,1009 "
     fill="none"
     stroke="#000000"
     id="polyline54"
     style="stroke-width:2.20919;fill:black;stroke:none"
     transform="matrix(0.67394598,0,0,0.67394598,0.00272578,-0.00394721)" />
  <polyline
     points="973.6129716106051,76.33587098490223 911.961546170494,74.56392714172759 908.9500099468008,103.8789246539346 971.0167128942069,101.91050592814968 973.6129716106051,76.33587098490223 "
     fill="none"
     stroke="#000000"
     id="polyline56"
     style="stroke-width:0;fill:#ffffff;fill-opacity:1;stroke:none;stroke-miterlimit:4;stroke-dasharray:none"
     transform="matrix(0.67394598,0,0,0.67394598,0.00272578,-0.00394721)" />
  <polyline
     points="1009,296.7647058823529 951.0549826214225,298.54497896335977 947.6832544438971,331.75843212325833 1009,330.11764705882354 "
     fill="none"
     stroke="#000000"
     id="polyline60"
     style="fill:white;fill-opacity:1;stroke:none;stroke-width:0;stroke-miterlimit:4;stroke-dasharray:none"
     transform="matrix(0.68784319,0,0,0.67394598,-13.167426,-0.00394721)" />
  <circle
     id="path42027"
     style="fill:black;stroke:black"
     cx="144.44446"
     cy="450.69446"
     r="2.6426744" />
  <circle
     id="path42029"
     style="fill:black;stroke:black"
     cx="144.44446"
     cy="450.69446"
     r="2.6426744" />
  <circle
     id="path42031"
     style="fill:black;stroke:black"
     cx="351.38892"
     cy="451.38892"
     r="2.6426744" />
  <circle
     id="path42033"
     style="fill:black;stroke:black"
     cx="351.38892"
     cy="451.38892"
     r="2.6426744" />
  <circle
     id="path42035"
     style="fill:black;stroke:black"
     cx="351.38892"
     cy="451.38892"
     r="2.6426744" />
  <path
     style="color:black;solid-color:black;fill:white;stroke-width:1;stroke-linecap:round;-inkscape-stroke:none"
     d="m 350.35416,442.43226 c -7.75227,0.19381 -205.58673,5.61991 -205.58673,5.61991 -2.08732,0.0288 -3.75148,1.46726 -3.7168,3.21286 0.0344,1.74496 1.7533,3.13641 3.83985,3.10832 l 205.58868,2.31548 c 2.86255,0.55262 3.83674,-5.99311 3.80207,-7.7387 -0.0344,-1.74561 -1.06454,-4.80261 -3.92707,-6.51787 z"
     id="path42298"
     sodipodi:nodetypes="ccccccc" />
  <path
     style="color:black;solid-color:black;fill:white;stroke-linecap:round;-inkscape-stroke:none"
     d="m 345.00974,546.94611 -199.39899,7.64837 c -2.08664,0.046 -4.29916,1.42195 -4.25348,3.5086 0.046,2.08664 2.05377,3.25647 4.14041,3.21079 l 198.75752,-1.99501 c 2.08742,-0.046 5.41658,-4.2256 5.3698,-6.313 -0.046,-2.08742 -2.52786,-6.10652 -4.61526,-6.05975 z"
     id="path42298-4"
     sodipodi:nodetypes="ccccccc" />
  <path
     style="color:black;solid-color:black;fill:white;stroke-linecap:round;-inkscape-stroke:none"
     d="m 113.86435,379.02838 -99.645308,4.05712 c -2.08693,0.0691 -3.722418,1.8174 -3.652343,3.9043 0.07014,2.08616 1.818138,3.72047 3.904296,3.65039 l 99.722825,-1.96401 c 2.08693,-0.0691 4.73022,-3.25157 4.66015,-5.33847 -0.0701,-2.08615 -2.90346,-4.37941 -4.98962,-4.30933 z"
     id="path42298-4-2"
     sodipodi:nodetypes="ccccccc" />
  <path
     style="color:black;solid-color:black;fill:white;stroke-width:1;stroke-linecap:round;-inkscape-stroke:none"
     d="m 212.06896,469.14328 c -1.63955,-0.0152 -2.82672,5.79082 -2.83948,7.76567 l -1.87833,51.53758 c -0.0126,1.97485 1.9151,5.4219 3.55465,5.43727 1.64015,0.0152 3.43653,-3.59148 3.44844,-5.56704 l 0.35594,-51.35237 c 0.0126,-1.97485 -1.00166,-7.80574 -2.64122,-7.82111 z"
     id="path42298-4-2-6"
     sodipodi:nodetypes="ccccccc" />
  <path
     style="color:black;solid-color:black;fill:white;stroke-width:0.999998;stroke-linecap:round;-inkscape-stroke:none"
     d="m 140.49466,466.44846 c -1.6396,0.009 -2.7331,6.16271 -2.71405,8.24989 l -1.04787,54.49248 c 0.0192,2.08717 2.00222,5.70055 3.64183,5.69181 1.64021,-0.009 3.37827,-3.84778 3.35836,-5.9357 l -0.47136,-54.27355 c -0.0192,-2.08717 -1.12729,-8.23367 -2.76691,-8.22493 z"
     id="path42298-4-2-6-4"
     sodipodi:nodetypes="ccccccc" />
  <path
     style="color:black;solid-color:black;fill:white;stroke-width:0.999998;stroke-linecap:round;-inkscape-stroke:none"
     d="m 106.42842,465.61628 c -1.6396,0.009 -2.7331,6.16271 -2.71405,8.24989 l -1.04787,54.49248 c 0.0192,2.08717 2.00222,5.70055 3.64183,5.69181 1.64021,-0.009 3.37827,-3.84778 3.35836,-5.9357 l -0.47136,-54.27355 c -0.0192,-2.08717 -1.12729,-8.23367 -2.76691,-8.22493 z"
     id="path42298-4-2-6-4-0"
     sodipodi:nodetypes="ccccccc" />
  <rect
     style="fill:black;fill-opacity:1;stroke:none;stroke-width:1.88976;stroke-linecap:round;stroke-linejoin:bevel;stroke-miterlimit:4;stroke-dasharray:none"
     id="rect45067"
     width="7.7160497"
     height="16.87886"
     x="0"
     y="440.29709" />
  <polyline
     points="99.34036777988484,1009 100.063564829484,925.4238475403039 55.84322525211862,924.1967221605555 56.649495950120496,1009 "
     fill="none"
     stroke="#000000"
     id="polyline18"
     style="fill:white;stroke:none;stroke-width:2.19636"
     transform="matrix(0.67394598,0,0,0.68184421,0.00272578,-7.3034679)" />
  <path
     sodipodi:type="star"
     style="fill:black;fill-opacity:1;stroke:none;stroke-width:1.79407;stroke-linecap:round;stroke-linejoin:bevel;stroke-miterlimit:4;stroke-dasharray:none"
     id="path46774"
     inkscape:flatsided="true"
     sodipodi:sides="3"
     sodipodi:cx="51.440334"
     sodipodi:cy="310.24951"
     sodipodi:r1="19.298496"
     sodipodi:r2="9.6492481"
     sodipodi:arg1="0.54756224"
     sodipodi:arg2="1.5947598"
     inkscape:rounded="0"
     inkscape:randomized="0"
     d="m 67.917317,320.29645 -33.41638,-0.80092 17.401812,-28.53897 z"
     inkscape:transform-center-x="0.15350376"
     inkscape:transform-center-y="-7.7258309"
     transform="matrix(0.66392197,0,0,1.6711681,17.287966,-214.97277)" />
  <polyline
     points="291.116428495528,0 289.78486002357283,56.68174290162779 351.08723893011097,58.44365468387715 352.13143901870484,0 "
     fill="none"
     stroke="#000000"
     id="polyline26"
     style="stroke-width:2.20919;fill:white;stroke:none"
     transform="matrix(0.67394598,0,0,0.67394598,0.00272578,-0.00394721)" />
  <polyline
     points="349.95871149765156,121.6070926919651 288.21363009218936,123.56531132920473 286.70997283476385,187.57246970868457 348.73948228286486,189.84708997585975 349.95871149765156,121.6070926919651 "
     fill="none"
     stroke="#000000"
     id="polyline28"
     style="stroke-width:2.20919;fill:white;stroke:none"
     transform="matrix(0.67394598,0,0,0.67394598,0.00272578,-0.00394721)" />
  <polyline
     points="449.1464495418817,0 447.3052193765424,61.20908722396289 472.58539291987546,61.93567298487137 474.16146006505846,0 "
     fill="none"
     stroke="#000000"
     id="polyline36"
     style="stroke-width:2.20919;fill:white;stroke:none"
     transform="matrix(0.67394598,0,0,0.67394598,0.00272578,-0.00394721)" />
  <polyline
     points="471.1647614564364,117.76309507186488 445.57961024318547,118.57451711232477 443.3313190936093,193.3157698192666 469.218028858328,194.2650346966646 471.1647614564364,117.76309507186488 "
     fill="none"
     stroke="#000000"
     id="polyline38"
     style="stroke-width:2.20919;fill:white;stroke:none"
     transform="matrix(0.67394598,0,0,0.67394598,0.00272578,-0.00394721)" />
  <path
     style="fill:none;stroke:black;stroke-width:7.55906;stroke-linecap:round;stroke-linejoin:miter;stroke-miterlimit:4;stroke-dasharray:none;stroke-opacity:1"
     d="m 142.15752,226.66669 217.66332,-6.66667"
     id="path58854" />
  <path
     style="color:black;solid-color:black;stroke-linecap:round;-inkscape-stroke:none"
     d="m 214.92383,174.45703 c -2.08616,-0.0701 -3.83416,1.56423 -3.9043,3.65039 l -1.11051,36.32428 7.2683,-0.21638 1.3969,-35.85204 c 0.0712,-2.08691 -1.56345,-3.83612 -3.65039,-3.90625 z"
     id="path59263"
     sodipodi:nodetypes="sccccs" />
  <path
     style="color:black;solid-color:black;stroke-width:1;stroke-linecap:round;-inkscape-stroke:none"
     d="m 211.36589,293.5721 c 2.08616,0.10408 3.83416,-2.32232 3.9043,-5.41952 l 1.2207,-53.29193 -7.6196,0.29706 -1.15579,52.61501 c -0.0712,3.09831 1.56345,5.69527 3.65039,5.79938 z"
     id="path59263-8"
     sodipodi:nodetypes="sccccs" />
  <path
     style="color:black;solid-color:black;stroke-width:1.00000003;stroke-miterlimit:4;stroke-dasharray:none"
     d="m 213.35371,90.124464 -0.66747,29.638076 7.493,0.24168 0.58548,-30.11661 z"
     id="path61874"
     sodipodi:nodetypes="ccccc" />
  <path
     style="fill:none;stroke:black;stroke-width:7.55906;stroke-linecap:butt;stroke-linejoin:miter;stroke-miterlimit:4;stroke-dasharray:none;stroke-opacity:1"
     d="m 193.59811,105.02402 26.79373,0.0192"
     id="path63422"
     sodipodi:nodetypes="cc" />
  <path
     style="fill:none;stroke:black;stroke-width:7.55906;stroke-linecap:butt;stroke-linejoin:miter;stroke-miterlimit:4;stroke-dasharray:none;stroke-opacity:1"
     d="M 218.97467,31.432092 219.7822,6.4001999e-8"
     id="path63628"
     sodipodi:nodetypes="cc" />
  <path
     style="fill:#000000;stroke:none;stroke-width:1px;stroke-linecap:butt;stroke-linejoin:miter;stroke-opacity:1"
     d="m 322.33826,680.31502 0.53835,-21.66867 37.68463,1.2113 -0.40376,20.45737 z"
     id="path4657"
     inkscape:connector-curvature="0" />
  <path
     style="fill:#000000;stroke:none;stroke-width:1px;stroke-linecap:butt;stroke-linejoin:miter;stroke-opacity:1"
     d="m 604.71416,681.2639 -2.00939,-14.3448 77.97543,2.51174 v 10.88418 z"
     id="path4661"
     inkscape:connector-curvature="0"
     sodipodi:nodetypes="ccccc" />
  <polyline
     points="1009,620.8823529411765 918.0302425832276,623.8575779111997 909.1356611252228,711.4742982036316 1009,715.2352941176471 "
     fill="none"
     stroke="#000000"
     id="polyline62"
     style="stroke-width:2.20919;stroke:none;fill:#ffffff"
     transform="matrix(0.67394598,0,0,0.67394598,0.00272578,-0.00394721)" />
  <ellipse
     style="opacity:1;fill:#000000;fill-opacity:1;stroke:#ff0000;stroke-width:7.12463284;stroke-linejoin:round;stroke-miterlimit:1.5;stroke-dasharray:none;stroke-opacity:0"
     id="path4679"
     cx="429.50201"
     cy="363.85931"
     rx="3.7257707"
     ry="3.6323068" />
  <path
     style="opacity:1;fill:#000000;fill-opacity:1;stroke:#ff0000;stroke-width:0.10957313;stroke-linejoin:round;stroke-miterlimit:4;stroke-dasharray:none;stroke-opacity:0"
     d="m 33.178719,149.18666 38.186597,1.41078 -0.03756,7.82638 -38.119438,-1.38915 z"
     id="rect4696"
     inkscape:connector-curvature="0"
     sodipodi:nodetypes="ccccc" />
  <path
     style="fill:#000000;stroke:none;stroke-width:1px;stroke-linecap:butt;stroke-linejoin:miter;stroke-opacity:1"
     d="m 31.978108,33.808115 -0.161505,-7.590763 40.537904,1.292045 v 7.429257 z"
     id="path4712"
     inkscape:connector-curvature="0" />
  <path
     transform="matrix(0.67394598,0,0,0.67394598,0.00272578,-0.00394721)"
     style="fill:#000000;stroke:none;stroke-width:2.20918989"
     d="m 106.786,127.95596 -58.722114,-1.5365 0.692893,52.42727 57.748701,2.11765"
     id="polyline4"
     inkscape:connector-curvature="0"
     sodipodi:nodetypes="cccc" />
  <path
     transform="matrix(0.67394598,0,0,0.67394598,0.00272578,-0.00394721)"
     style="fill:#ffffff;fill-opacity:1;stroke:none;stroke-width:0;stroke-miterlimit:4;stroke-dasharray:none"
     d="m 959.21576,218.19041 -62.54693,-2.61003 c -0.79881,-0.1997 -4.91253,45.84311 -4.91253,45.84311 l 62.64623,2.14535"
     id="polyline58"
     inkscape:connector-curvature="0"
     sodipodi:nodetypes="cccc" />
</svg>
